<svg id="svg" version="1.1" xmlns="http://www.w3.org/2000/svg" xmlns:xlink="http://www.w3.org/1999/xlink" width="400" height="400" viewBox="0, 0, 400,400"><g id="svgg"><path id="path0" d="M58.761 264.022 L 25.627 289.746 26.808 291.992 C 64.738 364.161,139.652 405.709,220.703 399.529 C 265.986 396.076,304.342 380.504,334.612 353.283 L 336.508 351.577 304.249 326.503 L 271.989 301.429 270.418 302.441 C 251.332 314.751,227.463 321.122,202.246 320.638 C 153.601 319.704,109.820 287.711,93.186 240.941 C 92.690 239.549,92.197 238.385,92.090 238.354 C 91.982 238.323,76.984 249.874,58.761 264.022 " stroke="none" fill="#34ab54" fill-rule="evenodd"></path><path id="path1" d="M204.150 204.248 L 204.199 241.895 258.057 241.944 C 297.529 241.980,311.914 242.051,311.914 242.211 C 311.914 242.647,310.156 249.563,309.562 251.465 C 307.390 258.416,304.123 265.696,300.495 271.665 C 298.566 274.839,294.395 280.895,293.760 281.445 C 293.698 281.499,293.253 282.026,292.772 282.617 C 292.290 283.208,291.808 283.789,291.700 283.908 C 288.082 287.907,286.353 289.723,284.732 291.226 C 283.641 292.238,282.609 293.205,282.438 293.375 C 281.624 294.186,276.406 298.316,274.453 299.695 C 273.246 300.548,272.283 301.322,272.314 301.415 C 272.345 301.508,286.827 312.824,304.496 326.560 L 336.621 351.535 341.317 346.813 C 345.918 342.184,348.017 339.945,350.317 337.208 C 350.948 336.456,351.591 335.709,351.746 335.548 C 351.900 335.386,352.896 334.155,353.959 332.813 C 355.022 331.470,356.030 330.200,356.200 329.990 C 356.369 329.781,356.955 328.990,357.501 328.232 C 358.047 327.475,358.540 326.812,358.598 326.758 C 358.697 326.666,360.372 324.305,362.341 321.484 C 363.870 319.294,368.707 311.462,370.122 308.887 C 370.476 308.242,371.202 306.924,371.736 305.957 C 374.456 301.030,381.638 285.407,381.641 284.412 C 381.641 284.338,382.032 283.287,382.510 282.076 C 383.758 278.914,386.705 269.856,387.705 266.113 C 387.934 265.254,388.292 263.936,388.500 263.184 C 393.935 243.536,396.744 216.240,395.596 194.238 C 395.325 189.045,394.846 182.951,394.431 179.395 C 393.833 174.281,392.806 167.017,392.644 166.748 C 392.595 166.667,350.153 166.602,298.328 166.602 L 204.101 166.602 204.150 204.248 " stroke="none" fill="#4484f3" fill-rule="evenodd"></path><path id="path2" d="M24.085 113.428 C -2.324 168.543,-2.547 230.142,23.462 285.246 C 24.525 287.497,25.472 289.417,25.567 289.512 C 25.667 289.612,39.550 278.962,58.613 264.162 C 76.693 250.124,91.637 238.532,91.822 238.403 C 92.135 238.184,92.089 237.941,91.184 235.050 C 84.144 212.564,84.154 187.900,91.210 165.024 C 92.123 162.064,92.165 161.837,91.846 161.614 C 91.658 161.482,76.717 149.894,58.645 135.863 C 40.572 121.832,25.735 110.352,25.672 110.352 C 25.610 110.352,24.896 111.736,24.085 113.428 " stroke="none" fill="#fbbb04" fill-rule="evenodd"></path><path id="path3" d="M192.969 0.212 C 122.628 4.331,60.622 44.287,27.380 106.918 L 25.625 110.223 40.108 121.471 C 81.609 153.701,91.835 161.627,92.001 161.685 C 92.212 161.760,92.262 161.645,93.471 158.301 C 113.428 103.086,170.608 70.228,227.199 81.455 C 246.704 85.324,264.163 94.115,278.906 107.491 C 279.927 108.417,280.850 109.176,280.957 109.177 C 281.065 109.179,293.973 96.360,309.641 80.691 L 338.129 52.202 335.324 49.656 C 296.823 14.705,246.133 -2.902,192.969 0.212 " stroke="none" fill="#ec4434" fill-rule="evenodd"></path><path id="path4" d="" stroke="none" fill="#3c88ea" fill-rule="evenodd"></path></g></svg>